<?xml version="1.0" encoding="utf-8"?>
<!-- Generator: Adobe Illustrator 24.3.0, SVG Export Plug-In . SVG Version: 6.00 Build 0)  -->
<svg xmlns="http://www.w3.org/2000/svg" xmlns:xlink="http://www.w3.org/1999/xlink" version="1.1" id="Layer_1" x="0px" y="0px" viewBox="0 0 512 512" enable-background="new 0 0 512 512" xml:space="preserve" width="32" height="32">
<g>
	<path d="M138.7,224H160c5.9,0,10.7,4.8,10.7,10.7s4.8,10.7,10.7,10.7s10.7-4.8,10.7-10.7c0-17.6-14.4-32-32-32h-21.3   c-17.6,0-32,14.4-32,32v42.7c0,17.6,14.4,32,32,32H160c17.6,0,32-14.4,32-32c0-5.9-4.8-10.7-10.7-10.7s-10.7,4.8-10.7,10.7   c0,5.9-4.8,10.7-10.7,10.7h-21.3c-5.9,0-10.7-4.8-10.7-10.7v-42.7C128,228.8,132.8,224,138.7,224z"/>
	<path d="M291.4,203.2c-4.4-1.5-9.2,0-11.9,3.7L256,238.2l-23.5-31.3c-2.8-3.7-7.5-5.2-11.9-3.7s-7.3,5.5-7.3,10.1v85.3   c0,5.9,4.8,10.7,10.7,10.7s10.7-4.8,10.7-10.7v-53.3l12.8,17.1c4,5.4,13.1,5.4,17.1,0l12.8-17.1v53.3c0,5.9,4.8,10.7,10.7,10.7   s10.7-4.8,10.7-10.7v-85.3C298.7,208.7,295.7,204.7,291.4,203.2z"/>
	<path d="M437.3,10.7H74.7C33.5,10.7,0,44.2,0,85.3v341.3c0,41.2,33.5,74.7,74.7,74.7h362.7c41.2,0,74.7-33.5,74.7-74.7V85.3   C512,44.2,478.5,10.7,437.3,10.7z M490.7,426.7c0,29.4-23.9,53.3-53.3,53.3H74.7c-29.4,0-53.3-23.9-53.3-53.3V85.3   C21.3,55.9,45.3,32,74.7,32h362.7c29.4,0,53.3,23.9,53.3,53.3V426.7z"/>
	<path d="M373.3,202.7h-42.7c-5.9,0-10.7,4.8-10.7,10.7v85.3c0,5.9,4.8,10.7,10.7,10.7h42.7c17.6,0,32-14.4,32-32v-42.7   C405.3,217,391,202.7,373.3,202.7z M384,277.3c0,5.9-4.8,10.7-10.7,10.7h-32v-64h32c5.9,0,10.7,4.8,10.7,10.7V277.3z"/>
</g>
<desc>
	Commande;Command;demande;request;escouade;squad;sergent;sergeant;caporal;corporal;troupe;troop;déclaration;declaration;demande;demand;allégiant;allegiant;docilement;obediently;adjure;adjure;réclamation;claim;thèse;thesis;directive;directive;solliciter;solicit;soumis;submissive;instruction;instruction;obéissance;obedience;assertion;assertion;extradition;extradition;enchère;bidding;pétition;petition;suivre;follow;exhortation;exhortation;annonciation;annunciation;implorer;entreat;implorer;entreaty;pagination;paging;invoquer;summon;déclaration;statement;exaction;exaction;Clavier;Keyboard;Commander;Command
	</desc>
<rect fill-opacity="0" width="512" height="512"/>
</svg>
