<?xml version="1.0" encoding="utf-8"?>
<!-- Generator: Adobe Illustrator 15.0.2, SVG Export Plug-In . SVG Version: 6.00 Build 0)  -->
<!DOCTYPE svg PUBLIC "-//W3C//DTD SVG 1.1//EN" "http://www.w3.org/Graphics/SVG/1.1/DTD/svg11.dtd">
<svg xmlns="http://www.w3.org/2000/svg" xmlns:xlink="http://www.w3.org/1999/xlink" version="1.1" id="Calque_1" x="0px" y="0px" width="32" height="32" viewBox="0 0 512 512" enable-background="new 0 0 512 512" xml:space="preserve">
<g>
	<path fill="#2A2A2A" d="M512.452,232.712l-19.827-83.234l-72.855,7.796c-7.361-12.392-15.879-23.7-25.459-33.82l26.93-65.316   l-72.934-44.92l-45.488,56.488c-15.776-4.13-32.016-6.196-48.433-6.3L225.884,0l-82.82,22.202l9.732,70.17   c-11.438,7.074-21.918,15.128-31.264,23.958L58.641,90.462l-44.946,72.856L67.807,207c-3.95,14.87-6.272,30.308-6.606,45.85   l-61.652,25.558l19.878,83.338l68.802-7.382c7.952,13.786,17.272,26.282,28.063,37.28L90.94,453.036l72.908,44.87l43.734-54.164   c14.844,3.666,29.946,5.729,45.386,5.886L278.86,512l83.34-19.828l-7.541-70.79c12.883-7.848,24.761-16.832,34.98-26.954   l63.873,26.282l44.922-72.905l-56.512-45.543c3.403-13.888,5.313-28.14,5.522-42.494L512.452,232.712z M310.717,362.057   c-58.786,30.103-130.996,6.967-161.045-51.893c-30.18-58.862-6.944-130.892,51.84-161.098   c58.809-30.102,130.943-6.816,161.043,51.944C392.737,259.82,369.553,331.85,310.717,362.057"/>
	<path fill="#2A2A2A" d="M295.074,235.966c11.048,21.532,2.553,48.021-18.951,59.019c-21.532,11.049-48.021,2.529-59.07-19.002   c-11.048-21.633-2.53-47.917,18.976-59.069C257.69,205.916,284.18,214.382,295.074,235.966"/>
</g>
</svg>
