<?xml version="1.0" encoding="utf-8"?>
<!-- Generator: Adobe Illustrator 15.0.2, SVG Export Plug-In . SVG Version: 6.00 Build 0)  -->
<!DOCTYPE svg PUBLIC "-//W3C//DTD SVG 1.1//EN" "http://www.w3.org/Graphics/SVG/1.1/DTD/svg11.dtd">
<svg version="1.1" id="Calque_1" xmlns="http://www.w3.org/2000/svg" xmlns:xlink="http://www.w3.org/1999/xlink" x="0px" y="0px"
	 width="512px" height="512px" viewBox="0 0 512 512" enable-background="new 0 0 512 512" xml:space="preserve">
<g>
	<path fill="#999999" d="M507.864,156.353c-8.9-5.736-18.09-11.022-27.041-16.679c0.381-5.376,0.291-10.772-0.359-16.139
		c8.659-5.696,17.459-11.203,26.119-16.91c4.255-2.763,6.427-8.339,4.444-13.154c-3.604-8.891-7.478-17.68-11.133-26.561
		c-1.421-3.243-3.504-6.697-7.127-7.719c-2.424-1.181-5.187-0.59-7.689-0.06c-9.49,2.293-18.972,4.625-28.482,6.858
		c-3.613-4.154-7.559-8.009-11.723-11.613c2.082-9.921,4.335-19.813,6.407-29.744c1.211-5.045-1.311-10.711-6.207-12.674
		c-8.98-3.765-18.03-7.359-27.04-11.043c-4.846-1.592-11.584-1.502-14.427,3.494c-5.517,8.73-10.793,17.62-16.179,26.42
		c-5.506-0.271-11.013-0.34-16.508,0.12c-5.718-8.66-10.993-17.62-16.789-26.23c-2.804-4.244-8.5-5.696-13.146-3.804
		c-9.2,3.844-18.41,7.698-27.581,11.613c-4.605,1.942-7.939,6.928-6.817,11.994c2.082,10.242,4.766,20.354,6.817,30.595
		c-4.284,3.574-8.089,7.659-11.823,11.773c-9.762-2.232-19.512-4.465-29.293-6.587c-5.096-1.211-10.832,1.352-12.734,6.357
		c-3.844,9.261-7.598,18.562-11.352,27.862c-1.932,4.675-0.611,10.532,3.745,13.355c8.658,5.657,17.529,11.013,26.249,16.59
		c-0.371,5.596-0.231,11.212,0.09,16.818c-8.04,4.966-15.979,10.112-23.997,15.118c-2.934,1.922-6.037,4.476-6.498,8.189
		c-0.931,3.023,0.43,6.066,1.562,8.831c3.635,8.399,7.048,16.889,10.722,25.258c1.942,4.595,6.979,7.849,12.004,6.718
		c10.161-2.172,20.272-4.595,30.395-6.908c3.743,4.084,7.599,8.069,11.884,11.594c-2.043,10.201-4.687,20.283-6.688,30.495
		c-1.051,5.036,2.002,10.271,6.788,12.034c9.229,3.783,18.46,7.589,27.731,11.272c4.765,1.941,10.701,0.371,13.395-4.135
		c5.627-8.689,10.963-17.569,16.618-26.24c5.497,0.331,11.013,0.3,16.51-0.16c5.756,8.64,11.163,17.53,16.979,26.139
		c2.743,4.096,8.22,6.018,12.845,4.105c8.75-3.504,17.359-7.369,26.079-10.942c3.224-1.412,6.818-3.293,8.02-6.848
		c1.321-2.522,0.901-5.446,0.29-8.099c-2.353-9.651-4.705-19.302-6.997-28.963c4.234-3.384,8.019-7.279,11.563-11.363
		c10.021,2.112,20.013,4.385,30.054,6.437c4.916,1.082,10.472-1.261,12.404-6.057c3.875-9.15,7.538-18.4,11.282-27.602
		C512.609,165.523,512.499,159.156,507.864,156.353z M484.317,182.132c-9.681-1.852-19.252-4.285-28.933-6.057
		c-4.164-0.701-8.289,1.242-10.822,4.505c-2.893,3.745-5.887,7.439-9.521,10.492c-3.594,3.284-7.939,6.077-10.081,10.622
		c-0.641,2.403-0.701,4.986-0.101,7.399c2.202,8.95,4.335,17.911,6.537,26.851c-4.335,1.862-8.68,3.695-13.024,5.517
		c-5.226-8.02-10.302-16.148-15.617-24.117c-2.453-3.625-6.808-5.677-11.163-4.996c-7.688,1.202-15.497,1.051-23.216,0.24
		c-4.245-0.41-8.29,1.712-10.592,5.246c-5.106,8.009-10.072,16.128-15.248,24.107c-4.345-1.812-8.72-3.544-13.074-5.336
		c2.062-9.361,4.314-18.681,6.236-28.072c0.761-4.155-0.921-8.419-4.205-11.033c-3.913-3.003-7.748-6.157-11.071-9.821
		c-3.354-3.394-5.747-7.898-10.202-10.031c-2.183-0.511-4.484-0.891-6.707-0.4c-9.23,2.052-18.421,4.305-27.672,6.267
		c-1.752-4.365-3.623-8.69-5.436-13.035c7.938-5.066,15.968-10.001,23.856-15.157c3.825-2.513,5.847-7.148,5.025-11.683
		c-1.141-7.339-1.041-14.817-0.149-22.186c0.581-4.495-1.512-8.98-5.326-11.413c-7.898-4.956-15.768-9.962-23.697-14.867
		c1.742-4.436,3.444-8.9,5.437-13.225c9.19,2.152,18.391,4.275,27.632,6.207c4.345,0.921,8.749-1.021,11.402-4.485
		c4.385-5.856,9.551-11.124,15.338-15.608c3.504-2.673,5.706-6.968,4.904-11.422c-2.031-9.421-4.274-18.802-6.396-28.203
		c4.345-1.862,8.7-3.714,13.074-5.506c5.116,8.039,10.103,16.178,15.348,24.138c2.503,3.694,7.008,5.536,11.413,4.846
		c7.368-1.051,14.847-1.001,22.235-0.09c4.365,0.541,8.779-1.342,11.192-5.056c4.985-8.09,9.871-16.229,14.847-24.328
		c4.355,1.762,8.69,3.554,13.064,5.276c-1.871,9.29-4.034,18.531-5.927,27.822c-0.961,4.355,0.722,8.88,4.235,11.603
		c6.026,4.565,11.482,9.872,16.089,15.878c2.742,3.474,7.197,5.356,11.592,4.325c9.281-2.183,18.531-4.476,27.802-6.718
		c1.862,4.335,3.654,8.689,5.497,13.035c-7.94,5.196-15.969,10.242-23.888,15.458c-3.504,2.322-5.627,6.267-5.396,10.492
		c0.41,6.648,1.461,13.315,0.59,19.983c-0.51,4.035-0.871,8.85,2.192,12.014c1.161,1.582,2.804,2.684,4.485,3.665
		c7.579,4.515,15.026,9.24,22.636,13.715C487.88,173.412,485.958,177.718,484.317,182.132z"/>
	<path fill="#999999" d="M369.047,81.257c-14.396,3.083-27.432,12.384-34.56,25.318c-5.877,10.172-8.059,22.406-6.167,34
		c2.103,13.345,9.671,25.709,20.584,33.688c10.181,7.378,23.075,11.183,35.63,9.821c12.805-1.082,25.108-7.228,33.708-16.759
		c8.129-8.931,13.074-20.744,13.505-32.838c0.69-13.205-4.084-26.571-12.824-36.482C406.92,83.98,387.097,77.393,369.047,81.257z
		 M401.203,155.392c-6.559,6.137-15.828,9.23-24.759,8.25c-10.011-1.011-19.401-7.108-24.237-15.958
		c-5.005-8.78-5.346-20.033-0.861-29.103c4.195-8.98,12.915-15.579,22.646-17.331c8.86-1.682,18.381,0.701,25.398,6.357
		c6.708,5.256,11.053,13.396,11.754,21.885C412.085,139.033,408.231,148.884,401.203,155.392z"/>
	<path fill="#999999" d="M198.645,503.841c2.773-13.575,4.615-27.362,7.519-40.906c7.418-2.744,14.837-5.547,21.854-9.261
		c10.422,7.438,20.964,14.717,31.396,22.145c2.883,1.942,6.347,3.965,9.96,3.094c3.074-0.24,5.388-2.443,7.469-4.485
		c8.15-8.21,16.349-16.378,24.538-24.548c2.282-2.433,4.636-5.416,4.375-8.95c0.271-2.853-1.292-5.376-2.834-7.608
		c-7.658-10.672-15.407-21.284-22.975-32.027c3.704-6.898,6.517-14.215,9-21.614c12.814-2.182,25.599-4.495,38.403-6.708
		c3.404-0.649,7.178-1.842,9.02-5.035c1.782-2.313,1.942-5.316,1.942-8.109c-0.021-11.363-0.03-22.727,0.01-34.079
		c-0.02-3.686-0.47-7.919-3.504-10.422c-1.702-1.893-4.265-2.533-6.657-3.004c-13.105-2.202-26.26-4.175-39.354-6.527
		c-2.343-7.388-5.226-14.626-8.92-21.455c7.028-10.291,14.256-20.443,21.424-30.644c2.263-3.204,4.796-7.008,3.854-11.123
		c-0.21-3.024-2.413-5.286-4.404-7.339c-8.2-8.149-16.358-16.338-24.519-24.518c-2.432-2.272-5.386-4.676-8.92-4.445
		c-3.363-0.321-6.217,1.772-8.81,3.604c-10.141,7.408-20.433,14.606-30.544,22.055c-7.138-3.494-14.436-6.688-22.025-9.06
		c-2.252-12.764-4.485-25.529-6.717-38.293c-0.651-3.374-1.842-7.088-4.986-8.931c-2.282-1.792-5.275-1.972-8.049-1.962
		c-11.362,0.021-22.726,0.03-34.078-0.01c-3.684,0.02-7.929,0.42-10.452,3.464c-2.082,1.882-2.743,4.745-3.194,7.409
		c-2.062,12.734-4.125,25.469-6.227,38.193c-7.579,2.313-14.877,5.437-21.955,8.98c-9.912-7.188-19.942-14.216-29.854-21.404
		c-2.503-1.862-5.247-3.535-8.35-4.125c-3.343-0.161-6.648,1.031-8.95,3.494c-9.02,9.01-18.12,17.95-27.031,27.07
		c-3.653,3.655-4.265,9.772-1.162,13.967c7.629,11.073,15.438,22.034,23.097,33.097c-3.714,7.049-6.777,14.428-9.161,22.017
		c-13.325,2.412-26.75,4.325-40.055,6.808c-4.666,0.852-8.239,4.795-8.82,9.48v40.386c0.451,4.887,4.034,9.331,9.02,10.053
		c13.225,2.462,26.5,4.685,39.745,7.117c2.383,7.629,5.526,14.986,9.16,22.105c-7.408,10.252-14.707,20.595-22.115,30.845
		c-2.042,2.944-4.084,6.528-3.093,10.232c0.491,4.154,4.135,6.758,6.808,9.601c7.359,7.339,14.697,14.696,22.025,22.065
		c2.553,2.463,5.756,4.955,9.541,4.494c4.265,0.04,7.468-3.184,10.812-5.355c9.441-6.498,18.651-13.355,28.242-19.603
		c7.189,3.294,14.396,6.608,21.985,8.94c2.264,13.285,4.315,26.61,6.678,39.887c0.842,4.744,4.776,8.59,9.602,9.109h40.556
		C193.429,511.44,197.663,508.396,198.645,503.841z M186.861,453.402c-2.352,12.705-4.385,25.47-6.848,38.155
		c-7.458-0.121-14.906-0.03-22.365-0.05c-2.082-12.386-4.094-24.79-6.207-37.173c-0.69-4.517-3.904-8.391-8.339-9.592
		c-8.63-2.303-17.069-5.437-24.848-9.861c-2.793-1.642-5.857-3.073-9.14-3.204c-4.966,0.491-8.641,4.045-12.594,6.688
		c-8.209,5.687-16.319,11.522-24.579,17.14c-5.596-4.727-10.602-10.352-15.818-15.568c6.999-10.942,15.277-21.105,22.405-31.986
		c2.323-3.744,1.893-8.57-0.411-12.214c-4.805-8.149-8.449-16.97-10.872-26.11c-1.071-4.324-4.245-8.049-8.7-9.03
		c-12.674-2.413-25.439-4.374-38.103-6.888c0.14-7.47-0.04-14.937,0.109-22.396c12.485-2.012,24.969-4.064,37.423-6.206
		c4.675-0.812,8.339-4.556,9.37-9.131c2.354-8.931,5.827-17.569,10.522-25.528c1.562-2.945,3.104-6.488,1.912-9.813
		c-0.63-3.093-2.782-5.496-4.505-8.019c-6.347-9.041-12.645-18.091-18.991-27.131c5.286-5.216,10.422-10.583,15.798-15.699
		c10.712,7.088,20.894,15.008,31.526,22.236c3.854,2.553,8.91,2.303,12.754-0.12c8.24-4.806,17.17-8.39,26.39-10.792
		c4.285-1.151,7.809-4.456,8.699-8.881c2.123-12.654,4.155-25.339,6.218-38.013c7.469-0.03,14.947-0.02,22.425,0
		c2.233,12.684,4.365,25.399,6.708,38.063c0.881,4.515,4.495,7.99,8.91,9.051c9.4,2.413,18.38,6.267,26.75,11.152
		c4.024,2.343,9.16,2.123,12.914-0.671c10.192-7.398,20.514-14.647,30.665-22.115c5.456,5.126,10.622,10.563,15.958,15.818
		c-7.158,10.171-14.285,20.363-21.465,30.525c-1.802,2.822-3.554,6.226-2.503,9.64c0.262,2.395,1.622,4.426,2.765,6.479
		c4.364,7.679,7.497,15.998,9.82,24.508c1.171,4.185,4.455,7.538,8.75,8.449c12.795,2.143,25.609,4.175,38.414,6.267
		c0.02,7.479,0.01,14.947,0.01,22.426c-12.865,2.334-25.779,4.386-38.614,6.858c-4.585,0.901-7.828,4.775-8.869,9.181
		c-2.293,8.95-5.927,17.52-10.523,25.528c-2.222,3.755-2.813,8.49-0.47,12.345c7.418,10.883,15.638,21.274,22.836,32.268
		c-5.086,5.346-10.422,10.472-15.608,15.728c-9.971-7.028-19.992-13.986-29.942-21.034c-2.963-2.022-6.608-3.965-10.272-2.884
		c-2.593,0.302-4.735,1.903-6.968,3.095c-7.518,4.294-15.688,7.308-23.997,9.66C191.136,445.734,187.762,449.067,186.861,453.402z"
		/>
	<path fill="#999999" d="M217.546,302.521c-13.735-17.21-37.092-25.81-58.757-22.007c-25.168,3.806-46.362,24.561-51.488,49.358
		c-2.943,14.306-1.082,29.845,6.247,42.589c7.148,13.995,20.053,24.617,34.7,30.034c15.667,5.466,33.678,4.705,48.494-2.954
		c16.349-7.899,29.103-23.126,33.568-40.786C235.467,339.402,230.691,317.678,217.546,302.521z M202.569,369.137
		c-8.7,11.152-23.186,17.72-37.342,16.209c-20.474-1.633-38.083-19.952-38.694-40.527c-1.251-19.612,13.145-38.794,32.207-43.358
		c10.292-2.633,21.534-1.173,30.855,3.903c10.692,6.128,18.852,16.77,21.364,28.904C213.411,346.33,210.588,359.656,202.569,369.137
		z"/>
</g>
</svg>
